<?xml version="1.0" encoding="UTF-8"?>
<svg id="Layer_1" data-name="Layer 1" xmlns="http://www.w3.org/2000/svg" xmlns:xlink="http://www.w3.org/1999/xlink" viewBox="73.59 77.65 565 166.37">
  <defs>
    <style>
      .cls-1 {
        clip-path: url(#clippath);
      }

      .cls-2 {
        fill: none;
      }

      .cls-3 {
        fill: #545454;
      }

      .cls-2, .cls-3, .cls-4, .cls-5 {
        stroke-width: 0px;
      }

    </style>
    <clipPath id="clippath">
      <rect class="cls-2" x="73.59" y="77.65" width="166.27" height="166.37"/>
    </clipPath>
  </defs>
  <g class="cls-1">
    <g>
    <path d="M239.86,77.65H73.59v166.37h166.27V77.65Z
             M135.11,222.4c13.77,0,24.94-11.17,24.94-24.96s-11.17-24.96-24.94-24.96-24.94,11.17-24.94,24.96,11.17,24.96,24.94,24.96Z
             M160.05,99.28v43.26l46.56,23.29v-43.26l-46.56-23.29Z"
          fill="#545454" fill-rule="evenodd" />
    </g>
  </g>
  <path class="cls-3" d="m300.98,150.33l-15.4-40.66v40.66h-9.08v-48.96h15.47l14.97,40.09,15.11-40.09h14.97v48.96h-9.86v-40.87l-15.47,40.87h-10.71Zm62.71-40.87h-20.01v-8.09h49.95v8.09h-20.01v40.87h-9.93v-40.87Zm31.8,16.46c0-18.59,9.86-25.4,27.18-25.4,15.61,0,24.41,4.68,25.83,16.75h-10.01c-1.28-7.02-6.46-9.01-15.82-9.01-10.43,0-17.17,3.48-17.17,15.04v4.97c0,11.35,6.6,15.18,17.17,15.18,9.01,0,14.26-1.7,15.89-8.44h10.01c-1.77,11.57-10.43,16.18-25.9,16.18-17.31,0-27.18-6.6-27.18-25.26Z"/>
  <path class="cls-3" d="m285.58,183.2v40.66h-9.08v-48.96h15.47l14.97,40.09,15.11-40.09h14.97v48.96h-9.86v-40.87l-15.47,40.87h-10.71l-15.4-40.66Zm68.25-8.3l17.17,27.18,15.82-27.18h9.72l-28.45,48.96h-9.79l7.52-12.99-22.92-35.98h10.93Zm53.18,34.91c.47,2.79,2.01,4.73,4.61,5.82,2.65,1.09,6.29,1.63,10.93,1.63,4.97,0,8.59-.54,10.86-1.63,2.27-1.13,3.41-2.89,3.41-5.25v-1.7c0-2.08-.88-3.64-2.63-4.68-1.75-1.04-4.33-1.56-7.73-1.56h-13.27v-7.24h13.27c2.93,0,5.16-.52,6.67-1.56,1.56-1.04,2.34-2.51,2.34-4.4v-1.49c0-2.27-1.06-3.88-3.19-4.83-2.08-.95-5.42-1.42-10.01-1.42-4.21,0-7.59.5-10.15,1.49-2.55.95-4.07,2.74-4.54,5.39h-10.01c.52-5.16,2.91-8.82,7.17-11,4.26-2.22,10.1-3.34,17.53-3.34,8.09,0,13.98,1.11,17.67,3.34,3.74,2.18,5.61,5.46,5.61,9.86,0,2.84-.85,5.2-2.55,7.1-1.66,1.89-3.97,3.17-6.95,3.83,3.36.66,5.98,1.94,7.88,3.83,1.94,1.89,2.91,4.4,2.91,7.52,0,5.06-1.96,8.87-5.89,11.42-3.88,2.51-10.01,3.76-18.38,3.76-7.66,0-13.72-1.13-18.17-3.41-4.4-2.32-6.86-6.15-7.38-11.5h10.01Zm58.27-34.91v16.39h20.58c5.82,0,10.08,1.44,12.77,4.33,2.7,2.84,4.04,6.84,4.04,11.99s-1.37,9.04-4.12,11.92c-2.7,2.88-6.93,4.33-12.7,4.33h-30.51v-48.96h9.93Zm27.39,31.5c0-2.08-.64-3.81-1.92-5.18-1.23-1.37-3.36-2.06-6.39-2.06h-19.09v16.82h19.09c3.07,0,5.23-.66,6.46-1.99,1.23-1.37,1.84-3.15,1.84-5.32v-2.27Zm25.83-31.5v48.96h-9.93v-48.96h9.93Zm59.46,0l-22.78,23.56,24.13,25.4h-12.77l-20.08-20.93h-6.95v20.93h-9.93v-48.96h9.93v19.94h7.31l19.37-19.94h11.78Zm36.85,0l21.57,48.96h-10.36l-5.46-12.56h-26.18l-5.46,12.56h-9.37l21.64-48.96h13.62Zm-17.24,29.09h19.8l-9.93-22.64-9.86,22.64Z"/>
</svg>