<svg viewBox="0 0 511 100" fill="none" xmlns="http://www.w3.org/2000/svg">
<path d="M163.08 75.0008H150.669L133.01 25.0022H142.158L156.272 66.2067H157.69L172.299 25.0022H181.306L163.08 75.0008Z" fill="#545454"/>
<path d="M204.935 49.115L227.913 75.0008H216.708L197.985 53.583H195.857V75.0008H187.347V25.0022H195.857V45.3562H197.914L215.644 25.0022H226.14L204.935 49.115Z" fill="#545454"/>
<path d="M256.453 75.0008H248.155V25.0022H261.488L275.105 62.8026H276.239L290.14 25.0022H303.189V75.0008H294.891V36.3494H293.757L279.502 75.0008H271.559L257.587 36.3494H256.453V75.0008Z" fill="#545454"/>
<path d="M339.343 38.1224H347.64L332.534 79.6106C331.258 83.1093 329.603 85.6388 327.57 87.199C325.584 88.7593 322.913 89.5394 319.556 89.5394H313.953L313.244 82.0928H320.123C321.494 82.0928 322.535 81.7855 323.244 81.1708C324 80.6035 324.639 79.587 325.159 78.1213L325.584 76.9866L309.202 38.1224H317.925L328.776 64.7174H329.91L339.343 38.1224Z" fill="#545454"/>
<path d="M373.294 56.207C375.328 56.8216 377.006 57.8854 378.33 59.3984C379.701 60.8641 380.386 62.6844 380.386 64.8592C380.386 66.8923 379.748 68.7362 378.472 70.391C377.242 71.9985 375.446 73.2987 373.082 74.2916C370.765 75.2372 368.094 75.71 365.068 75.71C361.049 75.71 357.598 74.7644 354.713 72.8732C351.877 70.982 350.009 68.4762 349.111 65.3557L356.628 64.0791C357.432 65.7339 358.496 66.9396 359.82 67.696C361.144 68.4052 362.869 68.7598 364.997 68.7598C367.314 68.7598 369.087 68.358 370.316 67.5542C371.592 66.7504 372.231 65.6394 372.231 64.221C372.231 61.4314 369.819 60.0367 364.997 60.0367H360.387V52.9447H364.997C367.172 52.9447 368.827 52.5901 369.961 51.8809C371.096 51.1244 371.663 50.1079 371.663 48.8313C371.663 47.4602 371.072 46.3728 369.89 45.569C368.708 44.7652 367.243 44.3634 365.493 44.3634C363.744 44.3634 362.16 44.7889 360.742 45.6399C359.371 46.491 358.307 47.6493 357.55 49.115L350.033 47.8384C351.12 44.4343 353.059 41.8575 355.848 40.1082C358.685 38.3115 361.995 37.4132 365.777 37.4132C368.472 37.4132 370.883 37.8624 373.011 38.7607C375.138 39.659 376.793 40.9119 377.975 42.5194C379.204 44.127 379.819 45.9472 379.819 47.9803C379.819 50.0133 379.204 51.7627 377.975 53.2284C376.793 54.694 375.233 55.6869 373.294 56.207Z" fill="#545454"/>
<path d="M388.178 75.0008V38.1224H396.333V48.6186H402.078C405.009 48.6186 407.61 49.1859 409.879 50.3206C412.149 51.4081 413.922 52.9683 415.198 55.0014C416.475 56.9871 417.113 59.2566 417.113 61.8097C417.113 64.3628 416.475 66.6559 415.198 68.6889C413.922 70.6747 412.125 72.2349 409.808 73.3696C407.539 74.4571 404.962 75.0008 402.078 75.0008H388.178ZM429.666 75.0008H421.51V38.1224H429.666V75.0008ZM402.078 67.9088C404.111 67.9088 405.766 67.3414 407.042 66.2067C408.319 65.072 408.957 63.6063 408.957 61.8097C408.957 60.013 408.319 58.5474 407.042 57.4126C405.766 56.2779 404.111 55.7106 402.078 55.7106H396.333V67.9088H402.078Z" fill="#545454"/>
<path d="M472.491 75.0008H461.782L449.016 60.3204H447.03V75.0008H438.874V38.1224H447.03V52.4482H449.016L461.356 38.1224H471.072L455.541 55.8524L472.491 75.0008Z" fill="#545454"/>
<path d="M490.755 37.4132C495.483 37.4132 499.194 38.9025 501.889 41.8812C504.631 44.8125 506.002 48.9495 506.002 54.2922V75.0008H499.974L498.272 69.1854C497.232 70.9347 495.695 72.4713 493.662 73.7952C491.629 75.0717 489.218 75.71 486.428 75.71C483.97 75.71 481.748 75.2136 479.762 74.2207C477.824 73.2278 476.311 71.833 475.223 70.0364C474.136 68.2398 473.592 66.2067 473.592 63.9373C473.592 60.4386 474.963 57.649 477.705 55.5687C480.495 53.4411 484.537 52.3773 489.833 52.3773H497.776C497.587 49.9188 496.83 47.9803 495.506 46.5619C494.23 45.0962 492.504 44.3634 490.329 44.3634C488.58 44.3634 487.067 44.7889 485.79 45.6399C484.514 46.491 483.568 47.5311 482.953 48.7604L475.436 47.4838C476.334 44.3634 478.178 41.9048 480.968 40.1082C483.804 38.3115 487.067 37.4132 490.755 37.4132ZM488.343 68.8308C491.18 68.8308 493.473 67.9088 495.223 66.0649C496.972 64.221 497.847 61.786 497.847 58.7601H490.116C484.585 58.7601 481.819 60.3676 481.819 63.5827C481.819 65.1902 482.41 66.4668 483.592 67.4124C484.774 68.358 486.358 68.8308 488.343 68.8308Z" fill="#545454"/>
<path fill-rule="evenodd" clip-rule="evenodd" d="M92.97 7.03085C85.94 0.000854492 74.63 0.000854492 52 0.000854492H48C25.37 0.000854492 14.06 0.000854492 7.03 7.03085C0 14.0609 0 25.3709 0 48.0009V52.0009C0 74.6309 0 85.9409 7.03 92.9709C14.06 100.001 25.37 100.001 48 100.001H52C74.63 100.001 85.94 100.001 92.97 92.9709C100 85.9409 100 74.6309 100 52.0009V48.0009C100 25.3709 100 14.0609 92.97 7.03085ZM50 73.5009C47.53 73.5009 45.5 71.5009 45.5 69.0209V50.9709C45.5 48.5009 47.53 46.5009 50 46.5009C52.47 46.5009 54.5 48.5009 54.5 50.9709V69.0209C54.5 71.4909 52.47 73.5009 50 73.5009ZM61.5 80.5209V39.4709C61.5 37.0009 63.53 34.9909 66 34.9909C68.47 34.9909 70.5 36.9909 70.5 39.4709V80.5209C70.5 82.9909 68.47 84.9909 66 84.9909C63.53 84.9909 61.5 82.9909 61.5 80.5209ZM86.5 69.0209C86.5 71.4909 84.47 73.4909 82 73.4909C79.53 73.4909 77.5 71.4909 77.5 69.0209V50.9709C77.5 48.5009 79.53 46.4909 82 46.4909C84.47 46.4909 86.5 48.4909 86.5 50.9709V69.0209ZM66 19.9909C56.9 19.9909 49.63 24.9909 41.46 30.6109C31.76 37.2809 20.78 44.7909 4 45.8409C4 35.5309 4.06 28.0109 4.84 22.2009C5.66 16.1109 7.21 12.5109 9.85 9.86085C12.5 7.21085 16.1 5.66085 22.19 4.85085C28.4 4.02085 36.56 4.01085 47.99 4.01085H51.99C63.42 4.01085 71.58 4.01085 77.79 4.85085C83.88 5.67085 87.48 7.22085 90.13 9.86085C92.78 12.5109 94.33 16.1109 95.14 22.2009C95.56 25.3309 95.77 28.9609 95.88 33.2509C89.3 28.0009 78.37 20.0009 65.99 20.0009L66 19.9909ZM38.5 57.4709V62.5209C38.5 64.9909 36.47 66.9909 34 66.9909C31.53 66.9909 29.5 64.9909 29.5 62.5209V57.4709C29.5 55.0009 31.53 52.9909 34 52.9909C36.47 52.9909 38.5 54.9909 38.5 57.4709ZM18 66.9909C15.53 66.9909 13.5 64.9909 13.5 62.5209V57.4709C13.5 55.0009 15.53 52.9909 18 52.9909C20.47 52.9909 22.5 54.9909 22.5 57.4709V62.5209C22.5 64.9909 20.47 66.9909 18 66.9909Z" fill="#545454"/>
</svg>
