<svg viewBox="0 0 742 89" fill="none" xmlns="http://www.w3.org/2000/svg"><g clip-path="url(#a)" fill="#545454"><path d="M1.304 34.32c0 8.436 4.072 13.507 11.317 18.69L0 71.726h10.418L24.5 50.794l-4.886-3.324c-5.942-3.974-8.792-7.142-8.792-13.71 0-5.923 4.154-9.977 12.127-9.977h4.234v47.953h9.685V16.39h-14c-14.162 0-21.57 7.223-21.57 17.93h.006ZM67.067 47.465H54.37v-15.82h-9.524v40.081h9.524V54.929h12.697v16.797h9.605V31.645h-9.605v15.82ZM193.305 31.645h-9.6l-13.349 18.5v-18.5h-9.524v40.081h9.524V52.008l13.996 19.718h10.827l-15.218-21.582 13.344-18.5ZM214.061 38.46c3.663 0 7.245 1.299 9.195 2.432v-7.953c-2.036-1.138-5.532-1.949-10.176-1.949-12.207 0-18.477 8.603-18.477 20.69 0 13.146 6.104 20.449 18.882 20.449 4.314 0 7.407-.73 9.766-2.433V61.91c-2.44 1.702-5.29 2.76-9.276 2.76-6.756 0-9.605-5.112-9.605-13.226 0-8.603 3.501-12.98 9.686-12.98l.005-.005ZM115.172 31.645H87.5v3.41c0 9.816-.652 22.392-3.987 29.126h-3.011V80.49h8.872v-8.764h21.327v8.764h8.71V64.18h-4.234V31.645h-.005Zm-9.524 32.536H92.3c2.602-6.084 3.334-16.958 3.334-23.934V39.11h10.009v25.072h.005ZM138.773 30.995c-11.474 0-17.012 8.764-17.012 20.771 0 13.71 6.836 20.363 18.962 20.363 6.104 0 10.58-1.3 13.349-3.163V61.26c-2.931 1.869-7.897 3.41-12.535 3.41-6.983 0-9.646-3.173-9.974-9.655h22.832v-4.951c0-13.876-6.103-19.069-15.627-19.069h.005Zm-.162 7.464c4.8 0 6.184 3.813 6.184 8.764v.81h-13.242c.227-6.285 2.506-9.574 7.058-9.574ZM327.414 33.71l-.346-1.716-14.63-2.547 8.502-11.465-.989-1.078-12.504 5.977 1.581-15.875-1.285-.735-7.611 12.837L291.581 0h-1.482l2.026 18.471-21.5-17.148-1.829.539 16.558 20.725-32.769-10.877-1.483 1.666 29.26 16.61-40.38 3.331-.445 2.499 41.962 4.556-34.993 28.86 1.483 2.008 41.665-22.587-8.254 39.785h2.52l15.965-37.433 9.736 29.3 1.73-1.324-4.003-29.79 15.173 17.15.989-1.569-11.615-21.264 16.211 5.978.148-1.813-14.53-10.681 13.69-3.283ZM523.958 51.086c7.452-1.496 11.034-5.147 11.034-8.975 0-8.033-11.232-11.927-26.046-11.927-10.175 0-17.825 1.95-23.115 4.624v8.683c4.638-2.433 12.288-4.785 20.266-4.785 5.699 0 9.034 1.219 9.034 4.301 0 3.083-2.85 4.302-9.605 4.302h-9.277v8.602h9.196c8.711 0 10.908 1.219 10.908 4.301 0 2.6-3.334 4.543-11.15 4.543-10.661 0-16.851-3.243-20.595-5.031v8.925c3.254 1.949 10.828 4.3 22.792 4.3 18.72 0 29.057-4.87 29.057-12.817 0-5.087-4.496-7.903-12.499-9.036v-.01ZM473.296 31.645l-13.703 25.314-14.864-25.314h-22.14l26.354 43.546-7.958 12.597h11.313l11.151-18.334 21.16-37.81h-11.313ZM381.355 47.833l-13.869-31.444h-23.358v55.337H353v-40.7l18.23 40.7h10.095l17.987-40.71v40.71h19.861V16.389h-24.338l-13.48 31.444ZM680.116 31.645h-14.895l-21.488 15.9v-15.9h-19.781v40.081h19.781V55.01l14.081 16.716h25.475L660.27 46.05l19.846-14.405ZM569.991 42.594h-8.139V31.64H541.99V71.72h27.915c14.895 0 24.091-5.193 24.091-14.848 0-8.683-8.14-14.279-24.01-14.279h.005Zm-2.769 20.771h-5.37V50.95h5.37c4.315 0 6.837 2.03 6.837 6.165 0 4.785-2.198 6.245-6.837 6.245v.005Z"/><path d="m722.684 31.726-.44 5.036c-4.032-3.722-10.034-5.686-17.709-5.686-13.51 0-24.58 7.303-24.58 20.851 0 13.549 10.499 20.932 24.499 20.932 7.529 0 13.683-2 17.831-5.872l.399 4.734h19.048V31.725h-19.048Zm-11.56 32.208c-6.756 0-10.909-3.39-10.909-12.087 0-9.232 4.315-11.846 10.909-11.846 6.022 0 10.827 2.528 10.827 11.846 0 9.317-4.067 12.087-10.827 12.087ZM616.06 31.645h-19.78v40.081h19.78V31.645Z"/></g><defs><clipPath id="a"><path fill="#fefcfd" d="M0 0h741.727v88.438H0z"/></clipPath></defs></svg>