<svg xmlns="http://www.w3.org/2000/svg" version="1.1" xmlns:xlink="http://www.w3.org/1999/xlink" xmlns:svgjs="http://svgjs.dev/svgjs" width="3378" height="3378"><svg width="3378" height="3378" viewBox="0 0 3378 2000" preserveacceptratio="xMidYMid meet" fill="none" xmlns="http://www.w3.org/2000/svg">
<path d="M1207.91 2000C990.072 2000 799.237 1936.63 624.605 1869.14C451.774 1800 310.448 1704.53 200.628 1582.72C92.6081 1459.26 25.996 1316.05 0.791416 1153.09C-24.4132 990.123 559.878 1051.85 686.716 1204.94C813.555 1358.02 844.695 1369.6 844.695 1369.6C844.695 1369.6 882.052 1391.77 954.065 1414.81C1027.88 1436.21 1112.49 1446.91 1207.91 1446.91C1323.13 1446.91 1420.35 1429.63 1499.56 1395.06C1578.78 1360.49 1639.09 1310.29 1680.5 1244.44C1723.71 1176.95 1745.31 1095.47 1745.31 1000C1745.31 904.527 1723.71 823.868 1680.5 758.025C1639.09 690.535 1578.78 639.506 1499.56 604.938C1420.35 570.37 1323.13 553.086 1207.91 553.086C1112.49 553.086 1051.7 561.42 966.006 578.704C880.308 595.988 849.072 599.951 776.128 655.864C776.128 655.864 713.342 695.679 686.716 848.765C660.091 1001.85 -24.4132 1011.52 0.791416 846.914C25.996 682.305 92.6081 539.095 200.628 417.284C310.448 295.473 451.774 200.823 624.605 133.333C799.237 64.1976 990.072 0 1207.91 0C1680.5 0 3178.75 166.255 3360.58 246.914C3542.42 327.572 2176.49 344.856 2277.31 491.358C2379.93 636.214 3260.37 762.963 3270.92 958.025C3281.47 1153.09 2379.93 1364.61 2277.31 1511.11C2176.49 1655.97 3542.42 1588.48 3360.58 1669.14C3178.75 1749.79 2277.31 2000 1207.91 2000ZM2058.57 1204.94C2058.57 1204.94 1029.68 1439.51 954.065 1172.84C922.736 1062.35 1528.26 1200.27 1240.28 911.458C952.293 622.647 2058.57 795.062 2058.57 795.062V1204.94Z" fill="#00a890"></path>
</svg><style>@media (prefers-color-scheme: light) { :root { filter: none; } }
@media (prefers-color-scheme: dark) { :root { filter: none; } }
</style></svg>